<svg width="166" height="20" viewBox="0 0 166 20" fill="none" xmlns="http://www.w3.org/2000/svg">
<path d="M0.54 2.66H4.56C5.05333 2.66 5.59333 2.68 6.18 2.72C6.76667 2.76 7.31333 2.88667 7.82 3.1C8.32667 3.3 8.74667 3.62 9.08 4.06C9.42667 4.48667 9.6 5.09333 9.6 5.88C9.6 6.66667 9.39333 7.32 8.98 7.84C8.58 8.34667 8.06 8.68667 7.42 8.86V9.06C7.78 9.16667 8.12 9.30667 8.44 9.48C8.76 9.65333 9.04 9.87333 9.28 10.14C9.52 10.4067 9.70667 10.7267 9.84 11.1C9.97333 11.46 10.04 11.8867 10.04 12.38C10.04 13.18 9.9 13.82 9.62 14.3C9.34 14.78 8.98 15.1467 8.54 15.4C8.1 15.6533 7.60667 15.82 7.06 15.9C6.51333 15.9667 5.98 16 5.46 16H0.54V15.66H1.62V3H0.54V2.66ZM3.84 8.74H4.12C4.49333 8.74 4.87333 8.71333 5.26 8.66C5.64667 8.59333 6 8.46 6.32 8.26C6.64 8.06 6.9 7.78 7.1 7.42C7.3 7.06 7.4 6.58 7.4 5.98C7.4 5.51333 7.31333 5.09333 7.14 4.72C6.98 4.33333 6.76667 4.00667 6.5 3.74C6.23333 3.47333 5.92667 3.27333 5.58 3.14C5.24667 2.99333 4.9 2.92 4.54 2.92C4.43333 2.92 4.32 2.93333 4.2 2.96C4.09333 2.97333 3.97333 2.99333 3.84 3.02V8.74ZM3.84 15.66H4.94C5.75333 15.66 6.41333 15.3867 6.92 14.84C7.42667 14.28 7.68 13.5067 7.68 12.52C7.68 11.7867 7.58667 11.1933 7.4 10.74C7.21333 10.2867 6.94667 9.94 6.6 9.7C6.26667 9.44667 5.86667 9.28 5.4 9.2C4.93333 9.10667 4.41333 9.06 3.84 9.06V15.66ZM23.0231 3H22.7031C22.4365 3 22.2165 3.00667 22.0431 3.02C21.8831 3.03333 21.7498 3.09333 21.6431 3.2C21.5498 3.29333 21.4831 3.45333 21.4431 3.68C21.4165 3.90667 21.4031 4.22667 21.4031 4.64V11.46C21.4031 13.1933 21.0498 14.4333 20.3431 15.18C19.6498 15.9133 18.6031 16.28 17.2031 16.28C16.7631 16.28 16.2765 16.2467 15.7431 16.18C15.2231 16.1133 14.7231 15.98 14.2431 15.78C13.7765 15.5667 13.3631 15.2733 13.0031 14.9C12.6565 14.5267 12.4431 14.0333 12.3631 13.42C12.3365 13.2733 12.3231 13.0867 12.3231 12.86C12.3231 12.6333 12.3231 12.3867 12.3231 12.12V3H11.0631V2.66H16.1231V3H14.8431V11.62C14.8431 12.2333 14.8765 12.8 14.9431 13.32C15.0231 13.8267 15.1631 14.2667 15.3631 14.64C15.5765 15.0133 15.8631 15.3067 16.2231 15.52C16.5831 15.7333 17.0431 15.84 17.6031 15.84C18.2165 15.84 18.7365 15.7333 19.1631 15.52C19.6031 15.2933 19.9498 14.98 20.2031 14.58C20.4698 14.1667 20.6631 13.6733 20.7831 13.1C20.9031 12.5133 20.9631 11.8667 20.9631 11.16V4.64C20.9631 4.21333 20.9365 3.88667 20.8831 3.66C20.8431 3.43333 20.7698 3.26667 20.6631 3.16C20.5565 3.05333 20.4165 2.99333 20.2431 2.98C20.0698 2.96667 19.8565 2.96667 19.6031 2.98C19.5365 2.98 19.4631 2.98667 19.3831 3C19.3165 3 19.2365 3 19.1431 3V2.66H23.0231V3ZM27.0041 15.66H28.2241V16H23.7041V15.66H24.8041V3H23.7041V2.66H29.4841C29.9241 2.66 30.3574 2.71333 30.7841 2.82C31.2107 2.92667 31.5841 3.10667 31.9041 3.36C32.2374 3.6 32.5041 3.92667 32.7041 4.34C32.9174 4.74 33.0241 5.24667 33.0241 5.86C33.0241 6.32667 32.9507 6.73333 32.8041 7.08C32.6707 7.42667 32.4841 7.72667 32.2441 7.98C32.0041 8.22 31.7241 8.42 31.4041 8.58C31.0841 8.74 30.7441 8.86 30.3841 8.94V9.16C30.9441 9.30667 31.3774 9.54667 31.6841 9.88C32.0041 10.2 32.2441 10.5667 32.4041 10.98C32.5641 11.3933 32.6641 11.8333 32.7041 12.3C32.7441 12.7533 32.7707 13.1867 32.7841 13.6C32.7974 13.8933 32.8107 14.1733 32.8241 14.44C32.8507 14.6933 32.8907 14.92 32.9441 15.12C32.9974 15.3067 33.0774 15.46 33.1841 15.58C33.2907 15.6867 33.4374 15.74 33.6241 15.74C33.7441 15.74 33.8574 15.7267 33.9641 15.7C34.0707 15.66 34.1774 15.62 34.2841 15.58C34.2974 15.58 34.3107 15.5733 34.3241 15.56L34.4441 15.86C34.2174 15.9667 33.9907 16.04 33.7641 16.08C33.5507 16.12 33.3307 16.14 33.1041 16.14C32.5174 16.14 32.0574 16.0533 31.7241 15.88C31.3907 15.7067 31.1307 15.4667 30.9441 15.16C30.7707 14.8533 30.6507 14.4867 30.5841 14.06C30.5307 13.6333 30.4841 13.16 30.4441 12.64C30.4307 12.48 30.4174 12.3133 30.4041 12.14C30.3907 11.9667 30.3707 11.7867 30.3441 11.6C30.2774 11.0267 30.1374 10.58 29.9241 10.26C29.7241 9.94 29.4707 9.70667 29.1641 9.56C28.8707 9.4 28.5374 9.30667 28.1641 9.28C27.7907 9.24 27.4041 9.22 27.0041 9.22V15.66ZM27.0041 3V8.9H27.6441C28.0174 8.9 28.3841 8.84667 28.7441 8.74C29.1174 8.63333 29.4441 8.46667 29.7241 8.24C30.0041 8 30.2307 7.7 30.4041 7.34C30.5774 6.96667 30.6641 6.51333 30.6641 5.98C30.6641 5.38 30.5841 4.88667 30.4241 4.5C30.2641 4.11333 30.0441 3.81333 29.7641 3.6C29.4841 3.37333 29.1574 3.22 28.7841 3.14C28.4107 3.04667 28.0107 3 27.5841 3H27.0041ZM34.7242 15.66C35.0176 15.66 35.2576 15.64 35.4442 15.6C35.6309 15.56 35.7842 15.4867 35.9042 15.38C36.0242 15.2733 36.1242 15.12 36.2042 14.92C36.2842 14.7067 36.3776 14.44 36.4842 14.12C37.0576 12.1733 37.6376 10.2333 38.2242 8.3C38.8109 6.35333 39.3976 4.40667 39.9842 2.46H40.6642L44.9242 15.66H45.8042V16H41.0242V15.66H42.3642L41.0842 11.64H37.6042L37.4642 12.04C37.3976 12.24 37.3176 12.4933 37.2242 12.8C37.1309 13.1067 37.0376 13.4133 36.9442 13.72C36.8642 14.0267 36.7909 14.3067 36.7242 14.56C36.6576 14.8133 36.6242 14.9867 36.6242 15.08C36.6242 15.24 36.6842 15.36 36.8042 15.44C36.9376 15.52 37.0909 15.58 37.2642 15.62C37.4376 15.6467 37.6109 15.66 37.7842 15.66C37.9709 15.66 38.1176 15.66 38.2242 15.66H38.2642V16H34.7242V15.66ZM37.7042 11.3H40.9842L39.3042 6.06L37.7042 11.3ZM49.6869 3H49.4069C48.7669 3 48.2402 3.05333 47.8269 3.16C47.4135 3.25333 47.0802 3.44 46.8269 3.72C46.5869 3.98667 46.4135 4.36 46.3069 4.84C46.2135 5.30667 46.1669 5.92 46.1669 6.68H45.8069C45.8335 5.98667 45.8469 5.31333 45.8469 4.66C45.8602 4.00667 45.8802 3.34 45.9069 2.66H55.8069C55.8202 3.34 55.8269 4.00667 55.8269 4.66C55.8402 5.31333 55.8535 5.98667 55.8669 6.68H55.5469C55.5469 5.86667 55.4935 5.22 55.3869 4.74C55.2802 4.24667 55.0935 3.87333 54.8269 3.62C54.5735 3.35333 54.2202 3.18667 53.7669 3.12C53.3269 3.04 52.7535 3 52.0469 3V15.66H53.4069V16H48.2669V15.66H49.6869V3ZM62.0942 2.4C62.8542 2.4 63.5476 2.60667 64.1742 3.02C64.8142 3.42 65.3609 3.95333 65.8142 4.62C66.2809 5.27333 66.6409 6.02 66.8942 6.86C67.1476 7.68667 67.2742 8.52 67.2742 9.36C67.2742 10.2133 67.1476 11.0533 66.8942 11.88C66.6409 12.6933 66.2809 13.4267 65.8142 14.08C65.3609 14.72 64.8142 15.24 64.1742 15.64C63.5476 16.04 62.8542 16.24 62.0942 16.24C61.3209 16.24 60.6142 16.04 59.9742 15.64C59.3342 15.2267 58.7876 14.6867 58.3342 14.02C57.8809 13.3533 57.5276 12.6 57.2742 11.76C57.0209 10.92 56.8942 10.0667 56.8942 9.2C56.8942 8.37333 57.0276 7.55333 57.2942 6.74C57.5742 5.92667 57.9476 5.2 58.4142 4.56C58.8942 3.92 59.4476 3.4 60.0742 3C60.7009 2.6 61.3742 2.4 62.0942 2.4ZM62.1342 2.72C61.7076 2.72 61.3409 2.83333 61.0342 3.06C60.7276 3.27333 60.4676 3.56667 60.2542 3.94C60.0409 4.3 59.8676 4.71333 59.7342 5.18C59.6142 5.63333 59.5142 6.10667 59.4342 6.6C59.3676 7.08 59.3209 7.56 59.2942 8.04C59.2676 8.50667 59.2542 8.92667 59.2542 9.3C59.2542 9.68667 59.2609 10.12 59.2742 10.6C59.3009 11.0667 59.3476 11.5467 59.4142 12.04C59.4809 12.52 59.5742 12.9933 59.6942 13.46C59.8142 13.9267 59.9742 14.3467 60.1742 14.72C60.3876 15.08 60.6476 15.3733 60.9542 15.6C61.2609 15.8133 61.6342 15.92 62.0742 15.92C62.5142 15.92 62.8876 15.8067 63.1942 15.58C63.5009 15.3533 63.7542 15.06 63.9542 14.7C64.1542 14.3267 64.3076 13.9067 64.4142 13.44C64.5209 12.96 64.6009 12.48 64.6542 12C64.7076 11.5067 64.7409 11.0267 64.7542 10.56C64.7676 10.08 64.7742 9.65333 64.7742 9.28C64.7742 8.94667 64.7609 8.55333 64.7342 8.1C64.7209 7.64667 64.6809 7.18 64.6142 6.7C64.5476 6.22 64.4542 5.74 64.3342 5.26C64.2276 4.78 64.0742 4.35333 63.8742 3.98C63.6742 3.60667 63.4342 3.30667 63.1542 3.08C62.8742 2.84 62.5342 2.72 62.1342 2.72ZM70.8688 0.679999C71.0154 0.973333 71.1954 1.30667 71.4088 1.68C71.6354 2.04 71.8688 2.39333 72.1088 2.74C72.3621 3.08667 72.5888 3.38667 72.7888 3.64V3.88H71.6088C71.3821 3.69333 71.1288 3.47333 70.8488 3.22C70.5688 2.95333 70.2888 2.68 70.0088 2.4C69.7421 2.10667 69.4954 1.82667 69.2688 1.56C69.0554 1.29333 68.8888 1.06667 68.7688 0.879999V0.679999H70.8688ZM74.6138 11.24H74.9137C74.9671 11.92 75.0738 12.54 75.2338 13.1C75.3938 13.6467 75.6204 14.12 75.9138 14.52C76.2204 14.92 76.6004 15.2333 77.0538 15.46C77.5071 15.6733 78.0471 15.78 78.6738 15.78C79.0604 15.78 79.4071 15.72 79.7138 15.6C80.0338 15.48 80.2938 15.3133 80.4938 15.1C80.7071 14.8733 80.8471 14.6067 80.9138 14.3C80.9938 13.9933 80.9871 13.66 80.8938 13.3C80.7871 12.9133 80.5271 12.6 80.1138 12.36C79.7138 12.12 79.2404 11.8733 78.6938 11.62C78.2271 11.4067 77.7471 11.1733 77.2538 10.92C76.7738 10.6667 76.3271 10.3533 75.9138 9.98C75.5004 9.59333 75.1604 9.13333 74.8938 8.6C74.6404 8.06667 74.5138 7.41333 74.5138 6.64C74.5138 6.52 74.5138 6.38667 74.5138 6.24C74.5271 6.09333 74.5471 5.94667 74.5738 5.8C74.7204 4.72 75.0871 3.92 75.6738 3.4C76.2604 2.86667 77.0538 2.57333 78.0538 2.52C78.6138 2.50667 79.0804 2.59333 79.4538 2.78C79.8271 2.96667 80.1338 3.14667 80.3738 3.32C80.6004 3.50667 80.7871 3.6 80.9338 3.6C81.1204 3.6 81.2338 3.51333 81.2738 3.34C81.3138 3.15333 81.3338 2.98 81.3338 2.82H81.6538V6.84H81.3138C81.2204 6.25333 81.0938 5.72 80.9338 5.24C80.7738 4.74667 80.5604 4.33333 80.2938 4C80.0404 3.65333 79.7271 3.38667 79.3538 3.2C78.9804 3.01333 78.5338 2.92 78.0138 2.92C77.6671 2.92 77.3338 2.96667 77.0138 3.06C76.6938 3.15333 76.4138 3.3 76.1738 3.5C75.9471 3.68667 75.7671 3.93333 75.6338 4.24C75.5138 4.54667 75.4671 4.91333 75.4938 5.34C75.5204 5.7 75.6138 6.01333 75.7738 6.28C75.9338 6.53333 76.1404 6.76 76.3938 6.96C76.6471 7.14667 76.9338 7.31333 77.2538 7.46C77.5738 7.60667 77.9071 7.74667 78.2538 7.88C78.6938 8.05333 79.1338 8.25333 79.5738 8.48C80.0271 8.69333 80.4404 8.96667 80.8138 9.3C81.2004 9.62 81.5204 10.0133 81.7738 10.48C82.0404 10.9467 82.2071 11.5133 82.2738 12.18C82.3004 12.7933 82.2204 13.3533 82.0338 13.86C81.8604 14.3533 81.6071 14.78 81.2738 15.14C80.9538 15.5 80.5604 15.78 80.0938 15.98C79.6404 16.1667 79.1471 16.26 78.6138 16.26C78.0938 16.26 77.6338 16.18 77.2338 16.02C76.8338 15.8733 76.4871 15.7267 76.1938 15.58C76.0338 15.4867 75.8804 15.4133 75.7338 15.36C75.6004 15.2933 75.4671 15.26 75.3338 15.26C75.1871 15.26 75.0804 15.3667 75.0138 15.58C74.9604 15.7933 74.9271 15.98 74.9137 16.14H74.6138V11.24ZM90.5836 15.66C90.8769 15.66 91.1169 15.64 91.3036 15.6C91.4903 15.56 91.6436 15.4867 91.7636 15.38C91.8836 15.2733 91.9836 15.12 92.0636 14.92C92.1436 14.7067 92.2369 14.44 92.3436 14.12C92.9169 12.1733 93.4969 10.2333 94.0836 8.3C94.6703 6.35333 95.2569 4.40667 95.8436 2.46H96.5236L100.784 15.66H101.664V16H96.8836V15.66H98.2236L96.9436 11.64H93.4636L93.3236 12.04C93.2569 12.24 93.1769 12.4933 93.0836 12.8C92.9903 13.1067 92.8969 13.4133 92.8036 13.72C92.7236 14.0267 92.6503 14.3067 92.5836 14.56C92.5169 14.8133 92.4836 14.9867 92.4836 15.08C92.4836 15.24 92.5436 15.36 92.6636 15.44C92.7969 15.52 92.9503 15.58 93.1236 15.62C93.2969 15.6467 93.4703 15.66 93.6436 15.66C93.8303 15.66 93.9769 15.66 94.0836 15.66H94.1236V16H90.5836V15.66ZM93.5636 11.3H96.8436L95.1636 6.06L93.5636 11.3ZM101.826 15.66C102.226 15.66 102.54 15.6533 102.766 15.64C102.993 15.6133 103.153 15.5467 103.246 15.44C103.353 15.32 103.413 15.1467 103.426 14.92C103.453 14.68 103.466 14.34 103.466 13.9V3.26L103.206 3H101.826V2.66H105.846L111.646 12.18V4.66C111.646 4.23333 111.633 3.90667 111.606 3.68C111.593 3.45333 111.546 3.29333 111.466 3.2C111.386 3.09333 111.266 3.03333 111.106 3.02C110.96 3.00667 110.753 3 110.486 3H110.046V2.66H113.666V3H113.206C112.94 3 112.726 3.00667 112.566 3.02C112.406 3.03333 112.286 3.09333 112.206 3.2C112.126 3.29333 112.073 3.45333 112.046 3.68C112.033 3.90667 112.026 4.23333 112.026 4.66V16.1H111.026L103.846 4.22V13.56C103.846 14.0933 103.853 14.5067 103.866 14.8C103.88 15.08 103.933 15.2867 104.026 15.42C104.133 15.54 104.3 15.6133 104.526 15.64C104.753 15.6533 105.08 15.66 105.506 15.66V16H101.826V15.66ZM118.066 3H117.786C117.146 3 116.619 3.05333 116.206 3.16C115.792 3.25333 115.459 3.44 115.206 3.72C114.966 3.98667 114.792 4.36 114.686 4.84C114.592 5.30667 114.546 5.92 114.546 6.68H114.186C114.212 5.98667 114.226 5.31333 114.226 4.66C114.239 4.00667 114.259 3.34 114.286 2.66H124.186C124.199 3.34 124.206 4.00667 124.206 4.66C124.219 5.31333 124.232 5.98667 124.246 6.68H123.926C123.926 5.86667 123.872 5.22 123.766 4.74C123.659 4.24667 123.472 3.87333 123.206 3.62C122.952 3.35333 122.599 3.18667 122.146 3.12C121.706 3.04 121.132 3 120.426 3V15.66H121.786V16H116.646V15.66H118.066V3ZM125.073 2.66H130.053V3H128.613V15.66H130.053V16H125.073V15.66H126.333V3H125.073V2.66ZM137.705 18.06C137.705 18.3933 137.752 18.66 137.845 18.86C137.939 19.0733 138.065 19.2333 138.225 19.34C138.385 19.46 138.565 19.54 138.765 19.58C138.979 19.62 139.199 19.64 139.425 19.64C139.585 19.64 139.732 19.6333 139.865 19.62C140.012 19.6067 140.159 19.5933 140.305 19.58V19.96C140.119 19.9733 139.952 19.98 139.805 19.98C139.672 19.9933 139.512 20 139.325 20C139.152 20 138.919 19.98 138.625 19.94C138.332 19.9 138.025 19.8467 137.705 19.78C137.399 19.7133 137.105 19.6333 136.825 19.54C136.545 19.4467 136.345 19.34 136.225 19.22C136.065 19.0867 135.945 18.9067 135.865 18.68C135.785 18.4667 135.725 18.2333 135.685 17.98C135.659 17.7267 135.639 17.4667 135.625 17.2C135.625 16.9467 135.625 16.7133 135.625 16.5V16.16C134.985 15.9467 134.405 15.6133 133.885 15.16C133.365 14.6933 132.919 14.1533 132.545 13.54C132.185 12.9267 131.905 12.2533 131.705 11.52C131.519 10.7867 131.425 10.0333 131.425 9.26C131.425 8.43333 131.559 7.61333 131.825 6.8C132.092 5.97333 132.459 5.24 132.925 4.6C133.392 3.94667 133.939 3.42 134.565 3.02C135.192 2.60667 135.872 2.4 136.605 2.4C137.365 2.4 138.059 2.60667 138.685 3.02C139.325 3.42 139.872 3.95333 140.325 4.62C140.792 5.27333 141.152 6.01333 141.405 6.84C141.672 7.66667 141.805 8.50667 141.805 9.36C141.805 10.12 141.705 10.86 141.505 11.58C141.319 12.2867 141.045 12.94 140.685 13.54C140.339 14.14 139.912 14.6667 139.405 15.12C138.912 15.5733 138.352 15.92 137.725 16.16L137.705 18.06ZM136.665 2.72C136.225 2.72 135.845 2.83333 135.525 3.06C135.219 3.27333 134.952 3.56 134.725 3.92C134.512 4.26667 134.339 4.67333 134.205 5.14C134.072 5.60667 133.965 6.08667 133.885 6.58C133.819 7.06 133.772 7.54 133.745 8.02C133.732 8.48667 133.725 8.91333 133.725 9.3C133.725 9.68667 133.739 10.12 133.765 10.6C133.792 11.08 133.839 11.5667 133.905 12.06C133.985 12.54 134.092 13.0133 134.225 13.48C134.372 13.9467 134.552 14.36 134.765 14.72C134.992 15.08 135.265 15.3733 135.585 15.6C135.905 15.8133 136.285 15.92 136.725 15.92C137.125 15.92 137.465 15.8067 137.745 15.58C138.039 15.34 138.285 15.0333 138.485 14.66C138.685 14.2733 138.839 13.84 138.945 13.36C139.065 12.88 139.152 12.3933 139.205 11.9C139.272 11.4067 139.312 10.9333 139.325 10.48C139.352 10.0267 139.365 9.63333 139.365 9.3C139.365 8.95333 139.352 8.55333 139.325 8.1C139.299 7.63333 139.245 7.16 139.165 6.68C139.099 6.18667 139.005 5.70667 138.885 5.24C138.765 4.76 138.605 4.33333 138.405 3.96C138.205 3.58667 137.959 3.28667 137.665 3.06C137.385 2.83333 137.052 2.72 136.665 2.72ZM154.82 3H154.5C154.233 3 154.013 3.00667 153.84 3.02C153.68 3.03333 153.547 3.09333 153.44 3.2C153.347 3.29333 153.28 3.45333 153.24 3.68C153.213 3.90667 153.2 4.22667 153.2 4.64V11.46C153.2 13.1933 152.847 14.4333 152.14 15.18C151.447 15.9133 150.4 16.28 149 16.28C148.56 16.28 148.073 16.2467 147.54 16.18C147.02 16.1133 146.52 15.98 146.04 15.78C145.573 15.5667 145.16 15.2733 144.8 14.9C144.453 14.5267 144.24 14.0333 144.16 13.42C144.133 13.2733 144.12 13.0867 144.12 12.86C144.12 12.6333 144.12 12.3867 144.12 12.12V3H142.86V2.66H147.92V3H146.64V11.62C146.64 12.2333 146.673 12.8 146.74 13.32C146.82 13.8267 146.96 14.2667 147.16 14.64C147.373 15.0133 147.66 15.3067 148.02 15.52C148.38 15.7333 148.84 15.84 149.4 15.84C150.013 15.84 150.533 15.7333 150.96 15.52C151.4 15.2933 151.747 14.98 152 14.58C152.267 14.1667 152.46 13.6733 152.58 13.1C152.7 12.5133 152.76 11.8667 152.76 11.16V4.64C152.76 4.21333 152.733 3.88667 152.68 3.66C152.64 3.43333 152.567 3.26667 152.46 3.16C152.353 3.05333 152.213 2.99333 152.04 2.98C151.867 2.96667 151.653 2.96667 151.4 2.98C151.333 2.98 151.26 2.98667 151.18 3C151.113 3 151.033 3 150.94 3V2.66H154.82V3ZM158.921 15.6H160.861C161.474 15.6 162.041 15.5867 162.561 15.56C163.094 15.52 163.554 15.3933 163.941 15.18C164.328 14.9533 164.634 14.6 164.861 14.12C165.088 13.64 165.201 12.9533 165.201 12.06H165.541V16H155.501V15.66H156.501V3H155.501V2.66H165.521L165.541 5.94H165.201C165.094 5.20667 164.901 4.64667 164.621 4.26C164.354 3.86 164.021 3.57333 163.621 3.4C163.234 3.21333 162.788 3.11333 162.281 3.1C161.788 3.07333 161.254 3.06 160.681 3.06H158.921V8.96H159.441C159.854 8.96 160.214 8.94667 160.521 8.92C160.841 8.89333 161.108 8.80667 161.321 8.66C161.534 8.51333 161.694 8.28667 161.801 7.98C161.908 7.66 161.968 7.22 161.981 6.66H162.301V11.7H161.981C161.968 11.1933 161.914 10.7933 161.821 10.5C161.741 10.1933 161.621 9.96667 161.461 9.82C161.301 9.66 161.108 9.56 160.881 9.52C160.654 9.46667 160.394 9.44 160.101 9.44H158.921V15.6Z" fill="black"/>
</svg>
