<svg width="18" height="18" viewBox="0 0 18 18" fill="none" xmlns="http://www.w3.org/2000/svg">
<path d="M8.25 15.75C8.25 16.58 7.58 17.25 6.75 17.25C5.92 17.25 5.25 16.58 5.25 15.75C5.25 14.92 5.92 14.25 6.75 14.25C7.58 14.25 8.25 14.92 8.25 15.75ZM13.25 14.25C12.42 14.25 11.75 14.92 11.75 15.75C11.75 16.58 12.42 17.25 13.25 17.25C14.08 17.25 14.75 16.58 14.75 15.75C14.75 14.92 14.08 14.25 13.25 14.25ZM17.73 4.68L15.73 12.68C15.6897 12.843 15.5959 12.9878 15.4635 13.0911C15.3311 13.1945 15.1679 13.2504 15 13.25H5C4.64 13.25 4.33 12.99 4.26 12.63L2.37 2.25H1C0.59 2.25 0.25 1.91 0.25 1.5C0.25 1.09 0.59 0.75 1 0.75H3C3.36 0.75 3.67 1.01 3.74 1.37L4.17 3.75H17C17.1137 3.75048 17.2259 3.77667 17.328 3.82662C17.4302 3.87657 17.5197 3.94898 17.5899 4.03844C17.6602 4.12789 17.7092 4.23207 17.7335 4.34317C17.7577 4.45427 17.7565 4.56942 17.73 4.68V4.68ZM16.04 5.25H4.44L5.62 11.75H14.41L16.04 5.25Z" fill="#F8F8F8"/>
</svg>
