<svg width="277" height="120" viewBox="0 0 277 120" fill="none" xmlns="http://www.w3.org/2000/svg">
<path d="M61.2222 114L57.7222 110.5C57.4444 110.722 57.125 110.898 56.7639 111.028C56.4028 111.157 56.0185 111.222 55.6111 111.222C54.6019 111.222 53.7478 110.873 53.0489 110.174C52.3496 109.475 52 108.62 52 107.611C52 106.602 52.3496 105.748 53.0489 105.048C53.7478 104.349 54.6019 104 55.6111 104C56.6204 104 57.4746 104.349 58.1739 105.048C58.8728 105.748 59.2222 106.602 59.2222 107.611C59.2222 108.019 59.1574 108.403 59.0278 108.764C58.8981 109.125 58.7222 109.444 58.5 109.722L62 113.222L61.2222 114ZM55.6111 110.111C56.3056 110.111 56.8959 109.868 57.3822 109.382C57.8681 108.896 58.1111 108.306 58.1111 107.611C58.1111 106.917 57.8681 106.326 57.3822 105.84C56.8959 105.354 56.3056 105.111 55.6111 105.111C54.9167 105.111 54.3263 105.354 53.84 105.84C53.3541 106.326 53.1111 106.917 53.1111 107.611C53.1111 108.306 53.3541 108.896 53.84 109.382C54.3263 109.868 54.9167 110.111 55.6111 110.111Z" fill="black"/>
<path d="M31.84 11.8C31.84 10.9333 31.9867 10.0867 32.28 9.26C32.5867 8.42 33.0267 7.66 33.6 6.98C34.1733 6.28667 34.88 5.74 35.72 5.34C36.56 4.92667 37.5133 4.72 38.58 4.72C39.8467 4.72 40.9267 5.01333 41.82 5.6C42.7267 6.17333 43.3933 6.91333 43.82 7.82L42.72 8.5C42.4133 7.87333 42.0267 7.38 41.56 7.02C41.0933 6.64667 40.5933 6.38 40.06 6.22C39.54 6.06 39.02 5.98 38.5 5.98C37.6467 5.98 36.8933 6.15333 36.24 6.5C35.5867 6.83333 35.0333 7.28667 34.58 7.86C34.14 8.42 33.8067 9.05333 33.58 9.76C33.3533 10.4533 33.24 11.16 33.24 11.88C33.24 12.6667 33.3733 13.42 33.64 14.14C33.9067 14.86 34.28 15.5 34.76 16.06C35.24 16.6067 35.8 17.0467 36.44 17.38C37.0933 17.7 37.8 17.86 38.56 17.86C39.0933 17.86 39.64 17.7667 40.2 17.58C40.76 17.3933 41.28 17.1067 41.76 16.72C42.2533 16.3333 42.6467 15.8333 42.94 15.22L44.1 15.82C43.8067 16.5267 43.3533 17.1267 42.74 17.62C42.1267 18.1133 41.44 18.4867 40.68 18.74C39.9333 18.9933 39.2 19.12 38.48 19.12C37.5067 19.12 36.6133 18.9133 35.8 18.5C34.9867 18.0733 34.28 17.5133 33.68 16.82C33.0933 16.1133 32.64 15.3267 32.32 14.46C32 13.58 31.84 12.6933 31.84 11.8ZM45.3709 16C45.3709 15.3467 45.5576 14.7867 45.9309 14.32C46.3043 13.84 46.8176 13.4733 47.4709 13.22C48.1376 12.9533 48.9043 12.82 49.7709 12.82C50.2776 12.82 50.8043 12.86 51.3509 12.94C51.8976 13.02 52.3843 13.14 52.8109 13.3V12.42C52.8109 11.54 52.5509 10.84 52.0309 10.32C51.5109 9.8 50.7909 9.54 49.8709 9.54C49.3109 9.54 48.7576 9.64667 48.2109 9.86C47.6776 10.06 47.1176 10.36 46.5309 10.76L46.0109 9.8C46.6909 9.33333 47.3576 8.98667 48.0109 8.76C48.6643 8.52 49.3309 8.4 50.0109 8.4C51.2909 8.4 52.3043 8.76667 53.0509 9.5C53.7976 10.2333 54.1709 11.2467 54.1709 12.54V17.36C54.1709 17.5467 54.2109 17.6867 54.2909 17.78C54.3709 17.86 54.4976 17.9067 54.6709 17.92V19C54.5243 19.0133 54.3976 19.0267 54.2909 19.04C54.1843 19.0533 54.1043 19.0533 54.0509 19.04C53.7176 19.0267 53.4643 18.92 53.2909 18.72C53.1176 18.52 53.0243 18.3067 53.0109 18.08L52.9909 17.32C52.5243 17.92 51.9176 18.3867 51.1709 18.72C50.4243 19.04 49.6643 19.2 48.8909 19.2C48.2243 19.2 47.6176 19.06 47.0709 18.78C46.5376 18.4867 46.1176 18.1 45.8109 17.62C45.5176 17.1267 45.3709 16.5867 45.3709 16ZM52.3509 16.8C52.4976 16.6133 52.6109 16.4333 52.6909 16.26C52.7709 16.0867 52.8109 15.9333 52.8109 15.8V14.28C52.3576 14.1067 51.8843 13.9733 51.3909 13.88C50.9109 13.7867 50.4243 13.74 49.9309 13.74C48.9576 13.74 48.1709 13.9333 47.5709 14.32C46.9709 14.7067 46.6709 15.2333 46.6709 15.9C46.6709 16.2867 46.7709 16.6533 46.9709 17C47.1709 17.3333 47.4643 17.6133 47.8509 17.84C48.2376 18.0533 48.6909 18.16 49.2109 18.16C49.8643 18.16 50.4709 18.0333 51.0309 17.78C51.6043 17.5267 52.0443 17.2 52.3509 16.8ZM62.3094 9.78C61.4027 9.80667 60.6027 10.06 59.9094 10.54C59.2294 11.02 58.7494 11.68 58.4694 12.52V19H57.1094V8.58H58.3894V11.08C58.7494 10.3467 59.2227 9.75333 59.8094 9.3C60.4094 8.84667 61.0427 8.59333 61.7094 8.54C61.8427 8.52667 61.956 8.52 62.0494 8.52C62.156 8.52 62.2427 8.52667 62.3094 8.54V9.78ZM64.1811 4.4H65.5411V16.64C65.5411 17.16 65.6344 17.5 65.8211 17.66C66.0078 17.82 66.2344 17.9 66.5011 17.9C66.7411 17.9 66.9811 17.8733 67.2211 17.82C67.4611 17.7667 67.6678 17.7133 67.8411 17.66L68.0811 18.76C67.8278 18.8667 67.5144 18.9533 67.1411 19.02C66.7811 19.0867 66.4678 19.12 66.2011 19.12C65.5878 19.12 65.0944 18.94 64.7211 18.58C64.3611 18.22 64.1811 17.7267 64.1811 17.1V4.4ZM74.0103 19.2C73.2636 19.2 72.5703 19.06 71.9303 18.78C71.3036 18.4867 70.757 18.0933 70.2903 17.6C69.837 17.0933 69.4836 16.52 69.2303 15.88C68.977 15.2267 68.8503 14.54 68.8503 13.82C68.8503 13.0733 68.977 12.38 69.2303 11.74C69.4836 11.0867 69.8436 10.5133 70.3103 10.02C70.777 9.51333 71.3236 9.12 71.9503 8.84C72.5903 8.54667 73.2836 8.4 74.0303 8.4C74.777 8.4 75.4636 8.54667 76.0903 8.84C76.717 9.12 77.2636 9.51333 77.7303 10.02C78.197 10.5133 78.557 11.0867 78.8103 11.74C79.0636 12.38 79.1903 13.0733 79.1903 13.82C79.1903 14.54 79.0636 15.2267 78.8103 15.88C78.557 16.52 78.197 17.0933 77.7303 17.6C77.277 18.0933 76.7303 18.4867 76.0903 18.78C75.4636 19.06 74.7703 19.2 74.0103 19.2ZM70.2303 13.84C70.2303 14.6133 70.397 15.32 70.7303 15.96C71.077 16.5867 71.537 17.0867 72.1103 17.46C72.6836 17.82 73.317 18 74.0103 18C74.7036 18 75.337 17.8133 75.9103 17.44C76.4836 17.0667 76.9436 16.56 77.2903 15.92C77.637 15.2667 77.8103 14.56 77.8103 13.8C77.8103 13.0267 77.637 12.32 77.2903 11.68C76.9436 11.04 76.4836 10.5333 75.9103 10.16C75.337 9.78667 74.7036 9.6 74.0103 9.6C73.317 9.6 72.6836 9.79333 72.1103 10.18C71.5503 10.5667 71.097 11.08 70.7503 11.72C70.4036 12.3467 70.2303 13.0533 70.2303 13.84ZM85.6448 19.14C84.9382 19.14 84.2848 18.9933 83.6848 18.7C83.0848 18.4067 82.5648 18.0133 82.1248 17.52C81.6982 17.0133 81.3648 16.44 81.1248 15.8C80.8848 15.16 80.7648 14.5 80.7648 13.82C80.7648 13.0867 80.8782 12.4 81.1048 11.76C81.3448 11.1067 81.6782 10.5267 82.1048 10.02C82.5448 9.51333 83.0582 9.12 83.6448 8.84C84.2315 8.54667 84.8848 8.4 85.6048 8.4C86.4982 8.4 87.2715 8.62667 87.9248 9.08C88.5915 9.53333 89.1515 10.0933 89.6048 10.76V8.58H90.8248V19.04C90.8248 20 90.5915 20.8067 90.1248 21.46C89.6715 22.1267 89.0515 22.6267 88.2648 22.96C87.4915 23.2933 86.6448 23.46 85.7248 23.46C84.5382 23.46 83.5782 23.2467 82.8448 22.82C82.1115 22.3933 81.5115 21.82 81.0448 21.1L81.8848 20.44C82.2982 21.0933 82.8448 21.58 83.5248 21.9C84.2182 22.22 84.9515 22.38 85.7248 22.38C86.4048 22.38 87.0248 22.2533 87.5848 22C88.1582 21.76 88.6115 21.3933 88.9448 20.9C89.2915 20.4067 89.4648 19.7867 89.4648 19.04V16.98C89.0648 17.6333 88.5182 18.16 87.8248 18.56C87.1315 18.9467 86.4048 19.14 85.6448 19.14ZM86.0248 18C86.4382 18 86.8315 17.9267 87.2048 17.78C87.5915 17.6333 87.9448 17.44 88.2648 17.2C88.5848 16.9467 88.8515 16.6667 89.0648 16.36C89.2782 16.0533 89.4115 15.74 89.4648 15.42V12.2C89.2648 11.6933 88.9782 11.2467 88.6048 10.86C88.2315 10.46 87.8048 10.1533 87.3248 9.94C86.8582 9.71333 86.3715 9.6 85.8648 9.6C85.2782 9.6 84.7515 9.72667 84.2848 9.98C83.8315 10.22 83.4448 10.5467 83.1248 10.96C82.8182 11.36 82.5782 11.8133 82.4048 12.32C82.2315 12.8267 82.1448 13.3333 82.1448 13.84C82.1448 14.4 82.2448 14.9333 82.4448 15.44C82.6448 15.9333 82.9182 16.38 83.2648 16.78C83.6248 17.1667 84.0382 17.4667 84.5048 17.68C84.9848 17.8933 85.4915 18 86.0248 18ZM92.9881 16C92.9881 15.3467 93.1748 14.7867 93.5481 14.32C93.9215 13.84 94.4348 13.4733 95.0881 13.22C95.7548 12.9533 96.5215 12.82 97.3881 12.82C97.8948 12.82 98.4215 12.86 98.9681 12.94C99.5148 13.02 100.001 13.14 100.428 13.3V12.42C100.428 11.54 100.168 10.84 99.6481 10.32C99.1281 9.8 98.4081 9.54 97.4881 9.54C96.9281 9.54 96.3748 9.64667 95.8281 9.86C95.2948 10.06 94.7348 10.36 94.1481 10.76L93.6281 9.8C94.3081 9.33333 94.9748 8.98667 95.6281 8.76C96.2815 8.52 96.9481 8.4 97.6281 8.4C98.9081 8.4 99.9215 8.76667 100.668 9.5C101.415 10.2333 101.788 11.2467 101.788 12.54V17.36C101.788 17.5467 101.828 17.6867 101.908 17.78C101.988 17.86 102.115 17.9067 102.288 17.92V19C102.141 19.0133 102.015 19.0267 101.908 19.04C101.801 19.0533 101.721 19.0533 101.668 19.04C101.335 19.0267 101.081 18.92 100.908 18.72C100.735 18.52 100.641 18.3067 100.628 18.08L100.608 17.32C100.141 17.92 99.5348 18.3867 98.7881 18.72C98.0415 19.04 97.2815 19.2 96.5081 19.2C95.8415 19.2 95.2348 19.06 94.6881 18.78C94.1548 18.4867 93.7348 18.1 93.4281 17.62C93.1348 17.1267 92.9881 16.5867 92.9881 16ZM99.9681 16.8C100.115 16.6133 100.228 16.4333 100.308 16.26C100.388 16.0867 100.428 15.9333 100.428 15.8V14.28C99.9748 14.1067 99.5015 13.9733 99.0081 13.88C98.5281 13.7867 98.0415 13.74 97.5481 13.74C96.5748 13.74 95.7881 13.9333 95.1881 14.32C94.5881 14.7067 94.2881 15.2333 94.2881 15.9C94.2881 16.2867 94.3881 16.6533 94.5881 17C94.7881 17.3333 95.0815 17.6133 95.4681 17.84C95.8548 18.0533 96.3081 18.16 96.8281 18.16C97.4815 18.16 98.0881 18.0333 98.6481 17.78C99.2215 17.5267 99.6615 17.2 99.9681 16.8ZM109.648 18.5C109.542 18.54 109.375 18.6133 109.148 18.72C108.922 18.8267 108.648 18.92 108.328 19C108.008 19.08 107.662 19.12 107.288 19.12C106.902 19.12 106.535 19.0467 106.188 18.9C105.855 18.7533 105.588 18.5333 105.388 18.24C105.188 17.9333 105.088 17.56 105.088 17.12V9.66H103.648V8.58H105.088V5.06H106.448V8.58H108.848V9.66H106.448V16.74C106.475 17.1133 106.608 17.3933 106.848 17.58C107.102 17.7667 107.388 17.86 107.708 17.86C108.082 17.86 108.422 17.8 108.728 17.68C109.035 17.5467 109.222 17.4533 109.288 17.4L109.648 18.5ZM110.508 16C110.508 15.3467 110.694 14.7867 111.068 14.32C111.441 13.84 111.954 13.4733 112.608 13.22C113.274 12.9533 114.041 12.82 114.908 12.82C115.414 12.82 115.941 12.86 116.488 12.94C117.034 13.02 117.521 13.14 117.948 13.3V12.42C117.948 11.54 117.688 10.84 117.168 10.32C116.648 9.8 115.928 9.54 115.008 9.54C114.448 9.54 113.894 9.64667 113.348 9.86C112.814 10.06 112.254 10.36 111.668 10.76L111.148 9.8C111.828 9.33333 112.494 8.98667 113.148 8.76C113.801 8.52 114.468 8.4 115.148 8.4C116.428 8.4 117.441 8.76667 118.188 9.5C118.934 10.2333 119.308 11.2467 119.308 12.54V17.36C119.308 17.5467 119.348 17.6867 119.428 17.78C119.508 17.86 119.634 17.9067 119.808 17.92V19C119.661 19.0133 119.534 19.0267 119.428 19.04C119.321 19.0533 119.241 19.0533 119.188 19.04C118.854 19.0267 118.601 18.92 118.428 18.72C118.254 18.52 118.161 18.3067 118.148 18.08L118.128 17.32C117.661 17.92 117.054 18.3867 116.308 18.72C115.561 19.04 114.801 19.2 114.028 19.2C113.361 19.2 112.754 19.06 112.208 18.78C111.674 18.4867 111.254 18.1 110.948 17.62C110.654 17.1267 110.508 16.5867 110.508 16ZM117.488 16.8C117.634 16.6133 117.748 16.4333 117.828 16.26C117.908 16.0867 117.948 15.9333 117.948 15.8V14.28C117.494 14.1067 117.021 13.9733 116.528 13.88C116.048 13.7867 115.561 13.74 115.068 13.74C114.094 13.74 113.308 13.9333 112.708 14.32C112.108 14.7067 111.808 15.2333 111.808 15.9C111.808 16.2867 111.908 16.6533 112.108 17C112.308 17.3333 112.601 17.6133 112.988 17.84C113.374 18.0533 113.828 18.16 114.348 18.16C115.001 18.16 115.608 18.0333 116.168 17.78C116.741 17.5267 117.181 17.2 117.488 16.8ZM132.704 14.28C133.304 14.3733 133.817 14.5867 134.244 14.92C134.67 15.2533 135.004 15.6733 135.244 16.18C135.484 16.6867 135.604 17.26 135.604 17.9C135.604 18.7 135.41 19.4067 135.024 20.02C134.637 20.6333 134.097 21.1067 133.404 21.44C132.71 21.7733 131.904 21.94 130.984 21.94C129.97 21.94 129.084 21.7333 128.324 21.32C127.564 20.92 126.99 20.36 126.604 19.64L127.544 18.78C127.837 19.3533 128.27 19.8133 128.844 20.16C129.417 20.52 130.13 20.7 130.984 20.7C131.97 20.7 132.75 20.4533 133.324 19.96C133.91 19.48 134.204 18.7867 134.204 17.88C134.204 16.9733 133.897 16.2533 133.284 15.72C132.684 15.1733 131.824 14.9 130.704 14.9H130.204V13.74H130.744C131.77 13.74 132.557 13.5 133.104 13.02C133.65 12.54 133.924 11.9267 133.924 11.18C133.924 10.6333 133.797 10.18 133.544 9.82C133.29 9.46 132.944 9.18667 132.504 9C132.077 8.81333 131.584 8.72 131.024 8.72C130.264 8.72 129.59 8.89333 129.004 9.24C128.43 9.57333 127.997 10.04 127.704 10.64L126.824 9.8C127.05 9.33333 127.377 8.92667 127.804 8.58C128.23 8.23333 128.73 7.96667 129.304 7.78C129.877 7.58 130.49 7.48 131.144 7.48C131.97 7.48 132.697 7.63333 133.324 7.94C133.95 8.23333 134.444 8.64667 134.804 9.18C135.164 9.71333 135.344 10.34 135.344 11.06C135.344 11.5933 135.237 12.0867 135.024 12.54C134.81 12.9933 134.504 13.3733 134.104 13.68C133.717 13.9867 133.25 14.1867 132.704 14.28ZM138.247 20.62L138.587 18.94H138.127V17.04H139.447V18.94L138.947 20.62H138.247ZM157.257 13.14C157.257 14.3133 157.037 15.36 156.597 16.28C156.171 17.1867 155.577 17.9 154.817 18.42C154.057 18.94 153.197 19.2 152.237 19.2C151.277 19.2 150.417 18.94 149.657 18.42C148.911 17.9 148.317 17.1867 147.877 16.28C147.437 15.36 147.217 14.3133 147.217 13.14C147.217 11.9667 147.437 10.9267 147.877 10.02C148.317 9.1 148.911 8.38 149.657 7.86C150.417 7.32667 151.277 7.06 152.237 7.06C153.197 7.06 154.057 7.32667 154.817 7.86C155.577 8.38 156.171 9.1 156.597 10.02C157.037 10.9267 157.257 11.9667 157.257 13.14ZM155.877 13.14C155.877 12.1933 155.724 11.36 155.417 10.64C155.111 9.92 154.684 9.36 154.137 8.96C153.591 8.54667 152.957 8.34 152.237 8.34C151.517 8.34 150.884 8.54667 150.337 8.96C149.791 9.36 149.357 9.92 149.037 10.64C148.731 11.36 148.577 12.1933 148.577 13.14C148.577 14.0867 148.731 14.92 149.037 15.64C149.357 16.36 149.791 16.92 150.337 17.32C150.884 17.72 151.517 17.92 152.237 17.92C152.957 17.92 153.591 17.72 154.137 17.32C154.684 16.9067 155.111 16.3467 155.417 15.64C155.724 14.92 155.877 14.0867 155.877 13.14ZM165.483 21.54V17.98H158.823V16.78L165.923 7.58H166.843V16.74H168.603V17.98H166.843V21.54H165.483ZM160.263 16.74H165.623V9.72L160.263 16.74ZM177.524 8.6H169.864V7.34H179.684L172.504 21.54H170.944L177.524 8.6ZM180.548 12.46C180.548 13.3533 180.761 14.1667 181.188 14.9C181.628 15.62 182.221 16.1933 182.968 16.62C183.715 17.0467 184.535 17.26 185.428 17.26C186.041 17.26 186.608 17.1533 187.128 16.94C187.648 16.7267 188.108 16.4267 188.508 16.04C188.908 15.64 189.201 15.1867 189.388 14.68C189.375 15.9867 189.201 17.1 188.868 18.02C188.548 18.94 188.095 19.6467 187.508 20.14C186.935 20.6333 186.248 20.88 185.448 20.88C184.715 20.88 184.041 20.6733 183.428 20.26C182.815 19.8467 182.368 19.3067 182.088 18.64L181.208 19.44C181.595 20.2533 182.161 20.8933 182.908 21.36C183.668 21.84 184.515 22.08 185.448 22.08C186.488 22.08 187.401 21.7667 188.188 21.14C188.975 20.5133 189.588 19.5733 190.028 18.32C190.468 17.0533 190.688 15.4533 190.688 13.52C190.688 12.28 190.468 11.22 190.028 10.34C189.601 9.44667 189.001 8.76667 188.228 8.3C187.468 7.82 186.588 7.58 185.588 7.58C184.655 7.58 183.801 7.8 183.028 8.24C182.268 8.68 181.661 9.26667 181.208 10C180.768 10.7333 180.548 11.5533 180.548 12.46ZM185.568 8.78C186.235 8.78 186.848 8.94667 187.408 9.28C187.981 9.61333 188.435 10.06 188.768 10.62C189.101 11.18 189.268 11.7933 189.268 12.46C189.268 13.1267 189.101 13.74 188.768 14.3C188.435 14.86 187.988 15.3067 187.428 15.64C186.868 15.9733 186.248 16.14 185.568 16.14C184.901 16.14 184.281 15.9733 183.708 15.64C183.148 15.3067 182.695 14.86 182.348 14.3C182.015 13.74 181.848 13.1267 181.848 12.46C181.848 11.78 182.015 11.1667 182.348 10.62C182.695 10.06 183.148 9.61333 183.708 9.28C184.268 8.94667 184.888 8.78 185.568 8.78ZM204.145 19.1C203.145 19.1 202.238 18.9 201.425 18.5C200.611 18.1 199.911 17.56 199.325 16.88C198.738 16.1867 198.285 15.4133 197.965 14.56C197.645 13.6933 197.485 12.8067 197.485 11.9C197.485 10.9533 197.651 10.0533 197.985 9.2C198.318 8.33333 198.785 7.56667 199.385 6.9C199.998 6.22 200.711 5.68667 201.525 5.3C202.338 4.9 203.218 4.7 204.165 4.7C205.165 4.7 206.071 4.90667 206.885 5.32C207.698 5.73333 208.391 6.28667 208.965 6.98C209.551 7.67333 210.005 8.44667 210.325 9.3C210.645 10.1533 210.805 11.0267 210.805 11.92C210.805 12.8667 210.638 13.7733 210.305 14.64C209.971 15.4933 209.505 16.26 208.905 16.94C208.305 17.6067 207.598 18.1333 206.785 18.52C205.971 18.9067 205.091 19.1 204.145 19.1ZM198.885 11.9C198.885 12.6733 199.011 13.42 199.265 14.14C199.518 14.8467 199.878 15.48 200.345 16.04C200.811 16.5867 201.365 17.0267 202.005 17.36C202.658 17.68 203.371 17.84 204.145 17.84C204.958 17.84 205.685 17.6733 206.325 17.34C206.978 16.9933 207.531 16.54 207.985 15.98C208.451 15.4067 208.805 14.7667 209.045 14.06C209.285 13.3533 209.405 12.6333 209.405 11.9C209.405 11.1267 209.278 10.3867 209.025 9.68C208.771 8.97333 208.405 8.34 207.925 7.78C207.458 7.22 206.905 6.78 206.265 6.46C205.625 6.14 204.918 5.98 204.145 5.98C203.345 5.98 202.618 6.14667 201.965 6.48C201.325 6.81333 200.771 7.26667 200.305 7.84C199.851 8.4 199.498 9.03333 199.245 9.74C199.005 10.4467 198.885 11.1667 198.885 11.9ZM216.584 19.2C215.731 19.2 214.937 19.06 214.204 18.78C213.471 18.5 212.837 18.0733 212.304 17.5L212.864 16.54C213.451 17.0867 214.037 17.4867 214.624 17.74C215.224 17.98 215.857 18.1 216.524 18.1C217.337 18.1 217.997 17.94 218.504 17.62C219.011 17.2867 219.264 16.8133 219.264 16.2C219.264 15.7867 219.137 15.4733 218.884 15.26C218.644 15.0333 218.291 14.8533 217.824 14.72C217.371 14.5733 216.824 14.42 216.184 14.26C215.464 14.06 214.857 13.8533 214.364 13.64C213.884 13.4133 213.517 13.1333 213.264 12.8C213.024 12.4533 212.904 12.0067 212.904 11.46C212.904 10.78 213.071 10.22 213.404 9.78C213.751 9.32667 214.217 8.98667 214.804 8.76C215.404 8.52 216.071 8.4 216.804 8.4C217.604 8.4 218.311 8.52667 218.924 8.78C219.537 9.03333 220.037 9.38667 220.424 9.84L219.764 10.76C219.391 10.3333 218.944 10.02 218.424 9.82C217.917 9.60667 217.351 9.5 216.724 9.5C216.297 9.5 215.891 9.56 215.504 9.68C215.117 9.78667 214.797 9.97333 214.544 10.24C214.304 10.4933 214.184 10.8467 214.184 11.3C214.184 11.6733 214.277 11.9667 214.464 12.18C214.651 12.38 214.931 12.5533 215.304 12.7C215.677 12.8333 216.137 12.98 216.684 13.14C217.471 13.3533 218.157 13.5733 218.744 13.8C219.331 14.0133 219.784 14.2933 220.104 14.64C220.424 14.9867 220.584 15.4733 220.584 16.1C220.584 17.0733 220.217 17.8333 219.484 18.38C218.751 18.9267 217.784 19.2 216.584 19.2ZM222.892 4.4H224.252V16.64C224.252 17.16 224.345 17.5 224.532 17.66C224.719 17.82 224.945 17.9 225.212 17.9C225.452 17.9 225.692 17.8733 225.932 17.82C226.172 17.7667 226.379 17.7133 226.552 17.66L226.792 18.76C226.539 18.8667 226.225 18.9533 225.852 19.02C225.492 19.0867 225.179 19.12 224.912 19.12C224.299 19.12 223.805 18.94 223.432 18.58C223.072 18.22 222.892 17.7267 222.892 17.1V4.4ZM232.721 19.2C231.975 19.2 231.281 19.06 230.641 18.78C230.015 18.4867 229.468 18.0933 229.001 17.6C228.548 17.0933 228.195 16.52 227.941 15.88C227.688 15.2267 227.561 14.54 227.561 13.82C227.561 13.0733 227.688 12.38 227.941 11.74C228.195 11.0867 228.555 10.5133 229.021 10.02C229.488 9.51333 230.035 9.12 230.661 8.84C231.301 8.54667 231.995 8.4 232.741 8.4C233.488 8.4 234.175 8.54667 234.801 8.84C235.428 9.12 235.975 9.51333 236.441 10.02C236.908 10.5133 237.268 11.0867 237.521 11.74C237.775 12.38 237.901 13.0733 237.901 13.82C237.901 14.54 237.775 15.2267 237.521 15.88C237.268 16.52 236.908 17.0933 236.441 17.6C235.988 18.0933 235.441 18.4867 234.801 18.78C234.175 19.06 233.481 19.2 232.721 19.2ZM228.941 13.84C228.941 14.6133 229.108 15.32 229.441 15.96C229.788 16.5867 230.248 17.0867 230.821 17.46C231.395 17.82 232.028 18 232.721 18C233.415 18 234.048 17.8133 234.621 17.44C235.195 17.0667 235.655 16.56 236.001 15.92C236.348 15.2667 236.521 14.56 236.521 13.8C236.521 13.0267 236.348 12.32 236.001 11.68C235.655 11.04 235.195 10.5333 234.621 10.16C234.048 9.78667 233.415 9.6 232.721 9.6C232.028 9.6 231.395 9.79333 230.821 10.18C230.261 10.5667 229.808 11.08 229.461 11.72C229.115 12.3467 228.941 13.0533 228.941 13.84Z" fill="black"/>
<path d="M14.36 50V38.44L9.22 47.42H8.34L3.18 38.44V50H1.78V35.8H3.22L8.76 45.52L14.34 35.8H15.76V50H14.36ZM18.1014 47C18.1014 46.3467 18.2881 45.7867 18.6614 45.32C19.0347 44.84 19.5481 44.4733 20.2014 44.22C20.8681 43.9533 21.6347 43.82 22.5014 43.82C23.0081 43.82 23.5347 43.86 24.0814 43.94C24.6281 44.02 25.1147 44.14 25.5414 44.3V43.42C25.5414 42.54 25.2814 41.84 24.7614 41.32C24.2414 40.8 23.5214 40.54 22.6014 40.54C22.0414 40.54 21.4881 40.6467 20.9414 40.86C20.4081 41.06 19.8481 41.36 19.2614 41.76L18.7414 40.8C19.4214 40.3333 20.0881 39.9867 20.7414 39.76C21.3947 39.52 22.0614 39.4 22.7414 39.4C24.0214 39.4 25.0347 39.7667 25.7814 40.5C26.5281 41.2333 26.9014 42.2467 26.9014 43.54V48.36C26.9014 48.5467 26.9414 48.6867 27.0214 48.78C27.1014 48.86 27.2281 48.9067 27.4014 48.92V50C27.2547 50.0133 27.1281 50.0267 27.0214 50.04C26.9147 50.0533 26.8347 50.0533 26.7814 50.04C26.4481 50.0267 26.1947 49.92 26.0214 49.72C25.8481 49.52 25.7547 49.3067 25.7414 49.08L25.7214 48.32C25.2547 48.92 24.6481 49.3867 23.9014 49.72C23.1547 50.04 22.3947 50.2 21.6214 50.2C20.9547 50.2 20.3481 50.06 19.8014 49.78C19.2681 49.4867 18.8481 49.1 18.5414 48.62C18.2481 48.1267 18.1014 47.5867 18.1014 47ZM25.0814 47.8C25.2281 47.6133 25.3414 47.4333 25.4214 47.26C25.5014 47.0867 25.5414 46.9333 25.5414 46.8V45.28C25.0881 45.1067 24.6147 44.9733 24.1214 44.88C23.6414 44.7867 23.1547 44.74 22.6614 44.74C21.6881 44.74 20.9014 44.9333 20.3014 45.32C19.7014 45.7067 19.4014 46.2333 19.4014 46.9C19.4014 47.2867 19.5014 47.6533 19.7014 48C19.9014 48.3333 20.1947 48.6133 20.5814 48.84C20.9681 49.0533 21.4214 49.16 21.9414 49.16C22.5947 49.16 23.2014 49.0333 23.7614 48.78C24.3347 48.5267 24.7747 48.2 25.0814 47.8ZM38.5998 50H37.2398V44.18C37.2398 42.9533 37.0598 42.06 36.6998 41.5C36.3398 40.9267 35.7732 40.64 34.9998 40.64C34.4665 40.64 33.9398 40.7733 33.4198 41.04C32.8998 41.2933 32.4398 41.6467 32.0398 42.1C31.6532 42.54 31.3732 43.0467 31.1998 43.62V50H29.8398V39.58H31.0798V41.94C31.3598 41.4333 31.7265 40.9933 32.1798 40.62C32.6332 40.2333 33.1465 39.9333 33.7198 39.72C34.2932 39.5067 34.8865 39.4 35.4998 39.4C36.0732 39.4 36.5598 39.5067 36.9598 39.72C37.3598 39.9333 37.6798 40.24 37.9198 40.64C38.1598 41.0267 38.3332 41.5 38.4398 42.06C38.5465 42.6067 38.5998 43.22 38.5998 43.9V50ZM40.8 44.82C40.8 43.8333 41 42.9333 41.4 42.12C41.8133 41.2933 42.38 40.6333 43.1 40.14C43.82 39.6467 44.64 39.4 45.56 39.4C46.4267 39.4 47.2 39.6333 47.88 40.1C48.5733 40.5533 49.1133 41.1067 49.5 41.76V35.4H50.86V48.36C50.86 48.5467 50.9 48.6867 50.98 48.78C51.06 48.86 51.18 48.9067 51.34 48.92V50C51.0733 50.04 50.8667 50.0533 50.72 50.04C50.44 50.0267 50.1933 49.9133 49.98 49.7C49.7667 49.4867 49.66 49.2533 49.66 49V47.98C49.2467 48.66 48.6867 49.2 47.98 49.6C47.2733 50 46.54 50.2 45.78 50.2C45.06 50.2 44.3933 50.0533 43.78 49.76C43.18 49.4667 42.6533 49.0667 42.2 48.56C41.76 48.0533 41.4133 47.48 41.16 46.84C40.92 46.1867 40.8 45.5133 40.8 44.82ZM49.5 46.42V43.2C49.3267 42.72 49.0467 42.2867 48.66 41.9C48.2733 41.5 47.8333 41.1867 47.34 40.96C46.86 40.72 46.38 40.6 45.9 40.6C45.34 40.6 44.8333 40.72 44.38 40.96C43.9267 41.1867 43.5333 41.5 43.2 41.9C42.88 42.3 42.6333 42.7533 42.46 43.26C42.2867 43.7667 42.2 44.2867 42.2 44.82C42.2 45.38 42.2933 45.9133 42.48 46.42C42.68 46.9267 42.96 47.38 43.32 47.78C43.68 48.1667 44.0933 48.4667 44.56 48.68C45.0267 48.8933 45.5333 49 46.08 49C46.4267 49 46.7867 48.9333 47.16 48.8C47.5333 48.6667 47.8867 48.4867 48.22 48.26C48.5667 48.02 48.8533 47.74 49.08 47.42C49.3067 47.1 49.4467 46.7667 49.5 46.42ZM53.1014 47C53.1014 46.3467 53.2881 45.7867 53.6614 45.32C54.0347 44.84 54.5481 44.4733 55.2014 44.22C55.8681 43.9533 56.6347 43.82 57.5014 43.82C58.0081 43.82 58.5347 43.86 59.0814 43.94C59.6281 44.02 60.1147 44.14 60.5414 44.3V43.42C60.5414 42.54 60.2814 41.84 59.7614 41.32C59.2414 40.8 58.5214 40.54 57.6014 40.54C57.0414 40.54 56.4881 40.6467 55.9414 40.86C55.4081 41.06 54.8481 41.36 54.2614 41.76L53.7414 40.8C54.4214 40.3333 55.0881 39.9867 55.7414 39.76C56.3947 39.52 57.0614 39.4 57.7414 39.4C59.0214 39.4 60.0347 39.7667 60.7814 40.5C61.5281 41.2333 61.9014 42.2467 61.9014 43.54V48.36C61.9014 48.5467 61.9414 48.6867 62.0214 48.78C62.1014 48.86 62.2281 48.9067 62.4014 48.92V50C62.2547 50.0133 62.1281 50.0267 62.0214 50.04C61.9147 50.0533 61.8347 50.0533 61.7814 50.04C61.4481 50.0267 61.1947 49.92 61.0214 49.72C60.8481 49.52 60.7547 49.3067 60.7414 49.08L60.7214 48.32C60.2547 48.92 59.6481 49.3867 58.9014 49.72C58.1547 50.04 57.3947 50.2 56.6214 50.2C55.9547 50.2 55.3481 50.06 54.8014 49.78C54.2681 49.4867 53.8481 49.1 53.5414 48.62C53.2481 48.1267 53.1014 47.5867 53.1014 47ZM60.0814 47.8C60.2281 47.6133 60.3414 47.4333 60.4214 47.26C60.5014 47.0867 60.5414 46.9333 60.5414 46.8V45.28C60.0881 45.1067 59.6147 44.9733 59.1214 44.88C58.6414 44.7867 58.1547 44.74 57.6614 44.74C56.6881 44.74 55.9014 44.9333 55.3014 45.32C54.7014 45.7067 54.4014 46.2333 54.4014 46.9C54.4014 47.2867 54.5014 47.6533 54.7014 48C54.9014 48.3333 55.1947 48.6133 55.5814 48.84C55.9681 49.0533 56.4214 49.16 56.9414 49.16C57.5947 49.16 58.2014 49.0333 58.7614 48.78C59.3347 48.5267 59.7747 48.2 60.0814 47.8ZM69.0198 50.14C68.3132 50.14 67.6598 49.9933 67.0598 49.7C66.4598 49.4067 65.9398 49.0133 65.4998 48.52C65.0732 48.0133 64.7398 47.44 64.4998 46.8C64.2598 46.16 64.1398 45.5 64.1398 44.82C64.1398 44.0867 64.2532 43.4 64.4798 42.76C64.7198 42.1067 65.0532 41.5267 65.4798 41.02C65.9198 40.5133 66.4332 40.12 67.0198 39.84C67.6065 39.5467 68.2598 39.4 68.9798 39.4C69.8732 39.4 70.6465 39.6267 71.2998 40.08C71.9665 40.5333 72.5265 41.0933 72.9798 41.76V39.58H74.1998V50.04C74.1998 51 73.9665 51.8067 73.4998 52.46C73.0465 53.1267 72.4265 53.6267 71.6398 53.96C70.8665 54.2933 70.0198 54.46 69.0998 54.46C67.9132 54.46 66.9532 54.2467 66.2198 53.82C65.4865 53.3933 64.8865 52.82 64.4198 52.1L65.2598 51.44C65.6732 52.0933 66.2198 52.58 66.8998 52.9C67.5932 53.22 68.3265 53.38 69.0998 53.38C69.7798 53.38 70.3998 53.2533 70.9598 53C71.5332 52.76 71.9865 52.3933 72.3198 51.9C72.6665 51.4067 72.8398 50.7867 72.8398 50.04V47.98C72.4398 48.6333 71.8932 49.16 71.1998 49.56C70.5065 49.9467 69.7798 50.14 69.0198 50.14ZM69.3998 49C69.8132 49 70.2065 48.9267 70.5798 48.78C70.9665 48.6333 71.3198 48.44 71.6398 48.2C71.9598 47.9467 72.2265 47.6667 72.4398 47.36C72.6532 47.0533 72.7865 46.74 72.8398 46.42V43.2C72.6398 42.6933 72.3532 42.2467 71.9798 41.86C71.6065 41.46 71.1798 41.1533 70.6998 40.94C70.2332 40.7133 69.7465 40.6 69.2398 40.6C68.6532 40.6 68.1265 40.7267 67.6598 40.98C67.2065 41.22 66.8198 41.5467 66.4998 41.96C66.1932 42.36 65.9532 42.8133 65.7798 43.32C65.6065 43.8267 65.5198 44.3333 65.5198 44.84C65.5198 45.4 65.6198 45.9333 65.8198 46.44C66.0198 46.9333 66.2932 47.38 66.6398 47.78C66.9998 48.1667 67.4132 48.4667 67.8798 48.68C68.3598 48.8933 68.8665 49 69.3998 49ZM82.1008 45.18V43.92H87.9408V45.18H82.1008ZM96.1159 50V35.8H97.5159V48.76H105.716V50H96.1159ZM111.702 50.2C110.955 50.2 110.262 50.06 109.622 49.78C108.995 49.4867 108.448 49.0933 107.982 48.6C107.528 48.0933 107.175 47.52 106.922 46.88C106.668 46.2267 106.542 45.54 106.542 44.82C106.542 44.0867 106.668 43.3933 106.922 42.74C107.175 42.0867 107.535 41.5133 108.002 41.02C108.468 40.5133 109.015 40.12 109.642 39.84C110.282 39.5467 110.968 39.4 111.702 39.4C112.462 39.4 113.155 39.5467 113.782 39.84C114.408 40.12 114.955 40.5133 115.422 41.02C115.888 41.5133 116.248 42.0867 116.502 42.74C116.755 43.3933 116.882 44.0867 116.882 44.82C116.882 45.54 116.755 46.2267 116.502 46.88C116.248 47.52 115.888 48.0933 115.422 48.6C114.968 49.0933 114.422 49.4867 113.782 49.78C113.155 50.06 112.462 50.2 111.702 50.2ZM111.702 49C112.395 49 113.028 48.8133 113.602 48.44C114.175 48.0667 114.635 47.56 114.982 46.92C115.328 46.2667 115.502 45.56 115.502 44.8C115.502 44.0267 115.328 43.32 114.982 42.68C114.635 42.04 114.175 41.5333 113.602 41.16C113.028 40.7867 112.395 40.6 111.702 40.6C111.008 40.6 110.375 40.7933 109.802 41.18C109.242 41.5533 108.788 42.06 108.442 42.7C108.095 43.34 107.922 44.0533 107.922 44.84C107.922 45.6133 108.088 46.32 108.422 46.96C108.768 47.5867 109.228 48.0867 109.802 48.46C110.375 48.82 111.008 49 111.702 49ZM107.402 50.02L108.682 48.38L109.502 48.88L108.602 50.02H107.402ZM109.622 48.78L108.822 48.32L113.822 40.76L114.702 41.16L109.622 48.78ZM114.842 41.08L113.962 40.68L114.782 39.54H116.022L114.842 41.08ZM124.356 40.78C123.45 40.8067 122.65 41.06 121.956 41.54C121.276 42.02 120.796 42.68 120.516 43.52V50H119.156V39.58H120.436V42.08C120.796 41.3467 121.27 40.7533 121.856 40.3C122.456 39.8467 123.09 39.5933 123.756 39.54C123.89 39.5267 124.003 39.52 124.096 39.52C124.203 39.52 124.29 39.5267 124.356 39.54V40.78ZM125.175 44.82C125.175 43.8333 125.375 42.9333 125.775 42.12C126.188 41.2933 126.755 40.6333 127.475 40.14C128.195 39.6467 129.015 39.4 129.935 39.4C130.802 39.4 131.575 39.6333 132.255 40.1C132.948 40.5533 133.488 41.1067 133.875 41.76V35.4H135.235V48.36C135.235 48.5467 135.275 48.6867 135.355 48.78C135.435 48.86 135.555 48.9067 135.715 48.92V50C135.448 50.04 135.242 50.0533 135.095 50.04C134.815 50.0267 134.568 49.9133 134.355 49.7C134.142 49.4867 134.035 49.2533 134.035 49V47.98C133.622 48.66 133.062 49.2 132.355 49.6C131.648 50 130.915 50.2 130.155 50.2C129.435 50.2 128.768 50.0533 128.155 49.76C127.555 49.4667 127.028 49.0667 126.575 48.56C126.135 48.0533 125.788 47.48 125.535 46.84C125.295 46.1867 125.175 45.5133 125.175 44.82ZM133.875 46.42V43.2C133.702 42.72 133.422 42.2867 133.035 41.9C132.648 41.5 132.208 41.1867 131.715 40.96C131.235 40.72 130.755 40.6 130.275 40.6C129.715 40.6 129.208 40.72 128.755 40.96C128.302 41.1867 127.908 41.5 127.575 41.9C127.255 42.3 127.008 42.7533 126.835 43.26C126.662 43.7667 126.575 44.2867 126.575 44.82C126.575 45.38 126.668 45.9133 126.855 46.42C127.055 46.9267 127.335 47.38 127.695 47.78C128.055 48.1667 128.468 48.4667 128.935 48.68C129.402 48.8933 129.908 49 130.455 49C130.802 49 131.162 48.9333 131.535 48.8C131.908 48.6667 132.262 48.4867 132.595 48.26C132.942 48.02 133.228 47.74 133.455 47.42C133.682 47.1 133.822 46.7667 133.875 46.42ZM137.476 47C137.476 46.3467 137.663 45.7867 138.036 45.32C138.41 44.84 138.923 44.4733 139.576 44.22C140.243 43.9533 141.01 43.82 141.876 43.82C142.383 43.82 142.91 43.86 143.456 43.94C144.003 44.02 144.49 44.14 144.916 44.3V43.42C144.916 42.54 144.656 41.84 144.136 41.32C143.616 40.8 142.896 40.54 141.976 40.54C141.416 40.54 140.863 40.6467 140.316 40.86C139.783 41.06 139.223 41.36 138.636 41.76L138.116 40.8C138.796 40.3333 139.463 39.9867 140.116 39.76C140.77 39.52 141.436 39.4 142.116 39.4C143.396 39.4 144.41 39.7667 145.156 40.5C145.903 41.2333 146.276 42.2467 146.276 43.54V48.36C146.276 48.5467 146.316 48.6867 146.396 48.78C146.476 48.86 146.603 48.9067 146.776 48.92V50C146.63 50.0133 146.503 50.0267 146.396 50.04C146.29 50.0533 146.21 50.0533 146.156 50.04C145.823 50.0267 145.57 49.92 145.396 49.72C145.223 49.52 145.13 49.3067 145.116 49.08L145.096 48.32C144.63 48.92 144.023 49.3867 143.276 49.72C142.53 50.04 141.77 50.2 140.996 50.2C140.33 50.2 139.723 50.06 139.176 49.78C138.643 49.4867 138.223 49.1 137.916 48.62C137.623 48.1267 137.476 47.5867 137.476 47ZM144.456 47.8C144.603 47.6133 144.716 47.4333 144.796 47.26C144.876 47.0867 144.916 46.9333 144.916 46.8V45.28C144.463 45.1067 143.99 44.9733 143.496 44.88C143.016 44.7867 142.53 44.74 142.036 44.74C141.063 44.74 140.276 44.9333 139.676 45.32C139.076 45.7067 138.776 46.2333 138.776 46.9C138.776 47.2867 138.876 47.6533 139.076 48C139.276 48.3333 139.57 48.6133 139.956 48.84C140.343 49.0533 140.796 49.16 141.316 49.16C141.97 49.16 142.576 49.0333 143.136 48.78C143.71 48.5267 144.15 48.2 144.456 47.8ZM153.395 50.14C152.688 50.14 152.035 49.9933 151.435 49.7C150.835 49.4067 150.315 49.0133 149.875 48.52C149.448 48.0133 149.115 47.44 148.875 46.8C148.635 46.16 148.515 45.5 148.515 44.82C148.515 44.0867 148.628 43.4 148.855 42.76C149.095 42.1067 149.428 41.5267 149.855 41.02C150.295 40.5133 150.808 40.12 151.395 39.84C151.982 39.5467 152.635 39.4 153.355 39.4C154.248 39.4 155.022 39.6267 155.675 40.08C156.342 40.5333 156.902 41.0933 157.355 41.76V39.58H158.575V50.04C158.575 51 158.342 51.8067 157.875 52.46C157.422 53.1267 156.802 53.6267 156.015 53.96C155.242 54.2933 154.395 54.46 153.475 54.46C152.288 54.46 151.328 54.2467 150.595 53.82C149.862 53.3933 149.262 52.82 148.795 52.1L149.635 51.44C150.048 52.0933 150.595 52.58 151.275 52.9C151.968 53.22 152.702 53.38 153.475 53.38C154.155 53.38 154.775 53.2533 155.335 53C155.908 52.76 156.362 52.3933 156.695 51.9C157.042 51.4067 157.215 50.7867 157.215 50.04V47.98C156.815 48.6333 156.268 49.16 155.575 49.56C154.882 49.9467 154.155 50.14 153.395 50.14ZM153.775 49C154.188 49 154.582 48.9267 154.955 48.78C155.342 48.6333 155.695 48.44 156.015 48.2C156.335 47.9467 156.602 47.6667 156.815 47.36C157.028 47.0533 157.162 46.74 157.215 46.42V43.2C157.015 42.6933 156.728 42.2467 156.355 41.86C155.982 41.46 155.555 41.1533 155.075 40.94C154.608 40.7133 154.122 40.6 153.615 40.6C153.028 40.6 152.502 40.7267 152.035 40.98C151.582 41.22 151.195 41.5467 150.875 41.96C150.568 42.36 150.328 42.8133 150.155 43.32C149.982 43.8267 149.895 44.3333 149.895 44.84C149.895 45.4 149.995 45.9333 150.195 46.44C150.395 46.9333 150.668 47.38 151.015 47.78C151.375 48.1667 151.788 48.4667 152.255 48.68C152.735 48.8933 153.242 49 153.775 49ZM173.296 48.76V50H166.516V48.76H169.356V40.2C169.249 40.36 169.069 40.5333 168.816 40.72C168.562 40.9067 168.269 41.08 167.936 41.24C167.616 41.4 167.296 41.5333 166.976 41.64C166.656 41.7467 166.362 41.8 166.096 41.8V40.48C166.402 40.48 166.736 40.3933 167.096 40.22C167.456 40.0467 167.802 39.8467 168.136 39.62C168.469 39.3933 168.749 39.18 168.976 38.98C169.202 38.78 169.329 38.6467 169.356 38.58H170.756V48.76H173.296ZM181.85 48.76V50H175.07V48.76H177.91V40.2C177.804 40.36 177.624 40.5333 177.37 40.72C177.117 40.9067 176.824 41.08 176.49 41.24C176.17 41.4 175.85 41.5333 175.53 41.64C175.21 41.7467 174.917 41.8 174.65 41.8V40.48C174.957 40.48 175.29 40.3933 175.65 40.22C176.01 40.0467 176.357 39.8467 176.69 39.62C177.024 39.3933 177.304 39.18 177.53 38.98C177.757 38.78 177.884 38.6467 177.91 38.58H179.31V48.76H181.85ZM183.585 41.6V39.64H184.745V41.6H183.585ZM183.585 50V48.04H184.745V50H183.585ZM197.195 44.14C197.195 45.3133 196.975 46.36 196.535 47.28C196.108 48.1867 195.515 48.9 194.755 49.42C193.995 49.94 193.135 50.2 192.175 50.2C191.215 50.2 190.355 49.94 189.595 49.42C188.848 48.9 188.255 48.1867 187.815 47.28C187.375 46.36 187.155 45.3133 187.155 44.14C187.155 42.9667 187.375 41.9267 187.815 41.02C188.255 40.1 188.848 39.38 189.595 38.86C190.355 38.3267 191.215 38.06 192.175 38.06C193.135 38.06 193.995 38.3267 194.755 38.86C195.515 39.38 196.108 40.1 196.535 41.02C196.975 41.9267 197.195 42.9667 197.195 44.14ZM195.815 44.14C195.815 43.1933 195.661 42.36 195.355 41.64C195.048 40.92 194.621 40.36 194.075 39.96C193.528 39.5467 192.895 39.34 192.175 39.34C191.455 39.34 190.821 39.5467 190.275 39.96C189.728 40.36 189.295 40.92 188.975 41.64C188.668 42.36 188.515 43.1933 188.515 44.14C188.515 45.0867 188.668 45.92 188.975 46.64C189.295 47.36 189.728 47.92 190.275 48.32C190.821 48.72 191.455 48.92 192.175 48.92C192.895 48.92 193.528 48.72 194.075 48.32C194.621 47.9067 195.048 47.3467 195.355 46.64C195.661 45.92 195.815 45.0867 195.815 44.14ZM209.441 44.14C209.441 45.3133 209.221 46.36 208.781 47.28C208.354 48.1867 207.761 48.9 207.001 49.42C206.241 49.94 205.381 50.2 204.421 50.2C203.461 50.2 202.601 49.94 201.841 49.42C201.094 48.9 200.501 48.1867 200.061 47.28C199.621 46.36 199.401 45.3133 199.401 44.14C199.401 42.9667 199.621 41.9267 200.061 41.02C200.501 40.1 201.094 39.38 201.841 38.86C202.601 38.3267 203.461 38.06 204.421 38.06C205.381 38.06 206.241 38.3267 207.001 38.86C207.761 39.38 208.354 40.1 208.781 41.02C209.221 41.9267 209.441 42.9667 209.441 44.14ZM208.061 44.14C208.061 43.1933 207.907 42.36 207.601 41.64C207.294 40.92 206.867 40.36 206.321 39.96C205.774 39.5467 205.141 39.34 204.421 39.34C203.701 39.34 203.067 39.5467 202.521 39.96C201.974 40.36 201.541 40.92 201.221 41.64C200.914 42.36 200.761 43.1933 200.761 44.14C200.761 45.0867 200.914 45.92 201.221 46.64C201.541 47.36 201.974 47.92 202.521 48.32C203.067 48.72 203.701 48.92 204.421 48.92C205.141 48.92 205.774 48.72 206.321 48.32C206.867 47.9067 207.294 47.3467 207.601 46.64C207.907 45.92 208.061 45.0867 208.061 44.14ZM216.945 45.18V43.92H222.785V45.18H216.945ZM237.3 48.76V50H230.52V48.76H233.36V40.2C233.253 40.36 233.073 40.5333 232.82 40.72C232.566 40.9067 232.273 41.08 231.94 41.24C231.62 41.4 231.3 41.5333 230.98 41.64C230.66 41.7467 230.366 41.8 230.1 41.8V40.48C230.406 40.48 230.74 40.3933 231.1 40.22C231.46 40.0467 231.806 39.8467 232.14 39.62C232.473 39.3933 232.753 39.18 232.98 38.98C233.206 38.78 233.333 38.6467 233.36 38.58H234.76V48.76H237.3ZM245.977 39.6H238.317V38.34H248.137L240.957 52.54H239.397L245.977 39.6ZM249.64 41.6V39.64H250.8V41.6H249.64ZM249.64 50V48.04H250.8V50H249.64ZM263.249 44.14C263.249 45.3133 263.029 46.36 262.589 47.28C262.163 48.1867 261.569 48.9 260.809 49.42C260.049 49.94 259.189 50.2 258.229 50.2C257.269 50.2 256.409 49.94 255.649 49.42C254.903 48.9 254.309 48.1867 253.869 47.28C253.429 46.36 253.209 45.3133 253.209 44.14C253.209 42.9667 253.429 41.9267 253.869 41.02C254.309 40.1 254.903 39.38 255.649 38.86C256.409 38.3267 257.269 38.06 258.229 38.06C259.189 38.06 260.049 38.3267 260.809 38.86C261.569 39.38 262.163 40.1 262.589 41.02C263.029 41.9267 263.249 42.9667 263.249 44.14ZM261.869 44.14C261.869 43.1933 261.716 42.36 261.409 41.64C261.103 40.92 260.676 40.36 260.129 39.96C259.583 39.5467 258.949 39.34 258.229 39.34C257.509 39.34 256.876 39.5467 256.329 39.96C255.783 40.36 255.349 40.92 255.029 41.64C254.723 42.36 254.569 43.1933 254.569 44.14C254.569 45.0867 254.723 45.92 255.029 46.64C255.349 47.36 255.783 47.92 256.329 48.32C256.876 48.72 257.509 48.92 258.229 48.92C258.949 48.92 259.583 48.72 260.129 48.32C260.676 47.9067 261.103 47.3467 261.409 46.64C261.716 45.92 261.869 45.0867 261.869 44.14ZM275.495 44.14C275.495 45.3133 275.275 46.36 274.835 47.28C274.409 48.1867 273.815 48.9 273.055 49.42C272.295 49.94 271.435 50.2 270.475 50.2C269.515 50.2 268.655 49.94 267.895 49.42C267.149 48.9 266.555 48.1867 266.115 47.28C265.675 46.36 265.455 45.3133 265.455 44.14C265.455 42.9667 265.675 41.9267 266.115 41.02C266.555 40.1 267.149 39.38 267.895 38.86C268.655 38.3267 269.515 38.06 270.475 38.06C271.435 38.06 272.295 38.3267 273.055 38.86C273.815 39.38 274.409 40.1 274.835 41.02C275.275 41.9267 275.495 42.9667 275.495 44.14ZM274.115 44.14C274.115 43.1933 273.962 42.36 273.655 41.64C273.349 40.92 272.922 40.36 272.375 39.96C271.829 39.5467 271.195 39.34 270.475 39.34C269.755 39.34 269.122 39.5467 268.575 39.96C268.029 40.36 267.595 40.92 267.275 41.64C266.969 42.36 266.815 43.1933 266.815 44.14C266.815 45.0867 266.969 45.92 267.275 46.64C267.595 47.36 268.029 47.92 268.575 48.32C269.122 48.72 269.755 48.92 270.475 48.92C271.195 48.92 271.829 48.72 272.375 48.32C272.922 47.9067 273.349 47.3467 273.655 46.64C273.962 45.92 274.115 45.0867 274.115 44.14Z" fill="black"/>
<line x1="51" y1="119" x2="225" y2="119" stroke="black" stroke-width="2"/>
</svg>
