<svg width="48" height="24" viewBox="0 0 48 24" fill="none" xmlns="http://www.w3.org/2000/svg">
<path d="M33.8 2H42.2C45.4 2 48 4.6 48 7.8V16.2C48 17.7383 47.3889 19.2135 46.3012 20.3012C45.2135 21.3889 43.7383 22 42.2 22H33.8C30.6 22 28 19.4 28 16.2V7.8C28 6.26174 28.6111 4.78649 29.6988 3.69878C30.7865 2.61107 32.2617 2 33.8 2M33.6 4C32.6452 4 31.7295 4.37928 31.0544 5.05442C30.3793 5.72955 30 6.64522 30 7.6V16.4C30 18.39 31.61 20 33.6 20H42.4C43.3548 20 44.2705 19.6207 44.9456 18.9456C45.6207 18.2705 46 17.3548 46 16.4V7.6C46 5.61 44.39 4 42.4 4H33.6ZM43.25 5.5C43.5815 5.5 43.8995 5.6317 44.1339 5.86612C44.3683 6.10054 44.5 6.41848 44.5 6.75C44.5 7.08152 44.3683 7.39946 44.1339 7.63388C43.8995 7.8683 43.5815 8 43.25 8C42.9185 8 42.6005 7.8683 42.3661 7.63388C42.1317 7.39946 42 7.08152 42 6.75C42 6.41848 42.1317 6.10054 42.3661 5.86612C42.6005 5.6317 42.9185 5.5 43.25 5.5ZM38 7C39.3261 7 40.5979 7.52678 41.5355 8.46447C42.4732 9.40215 43 10.6739 43 12C43 13.3261 42.4732 14.5979 41.5355 15.5355C40.5979 16.4732 39.3261 17 38 17C36.6739 17 35.4021 16.4732 34.4645 15.5355C33.5268 14.5979 33 13.3261 33 12C33 10.6739 33.5268 9.40215 34.4645 8.46447C35.4021 7.52678 36.6739 7 38 7M38 9C37.2044 9 36.4413 9.31607 35.8787 9.87868C35.3161 10.4413 35 11.2044 35 12C35 12.7956 35.3161 13.5587 35.8787 14.1213C36.4413 14.6839 37.2044 15 38 15C38.7956 15 39.5587 14.6839 40.1213 14.1213C40.6839 13.5587 41 12.7956 41 12C41 11.2044 40.6839 10.4413 40.1213 9.87868C39.5587 9.31607 38.7956 9 38 9Z" fill="#F8F8F8"/>
<path d="M22 12C22 6.48 17.52 2 12 2C6.48 2 2 6.48 2 12C2 16.84 5.44 20.87 10 21.8V15H8V12H10V9.5C10 7.57 11.57 6 13.5 6H16V9H14C13.45 9 13 9.45 13 10V12H16V15H13V21.95C18.05 21.45 22 17.19 22 12Z" fill="#F8F8F8"/>
</svg>
